<!--?xml version="1.0" standalone="no"?-->
              <svg id="sw-js-blob-svg" viewBox="0 0 100 100" xmlns="http://www.w3.org/2000/svg" version="1.1">
                    <defs> 
                        <linearGradient id="sw-gradient" x1="0" x2="1" y1="1" y2="0">
                            <stop id="stop1" stop-color="rgba(0, 55, 55, 1)" offset="0%"></stop>
                            <stop id="stop2" stop-color="rgba(0, 0, 0, 1)" offset="100%"></stop>
                        </linearGradient>
                    </defs>
                <path fill="url(#sw-gradient)" d="M26.5,-31.2C32.4,-26.6,34,-16.4,33.1,-7.8C32.2,0.8,28.9,7.8,25.2,15C21.6,22.1,17.5,29.5,10.6,34.2C3.7,38.9,-6,41,-13.8,38C-21.6,35.1,-27.5,27.2,-32.4,18.7C-37.4,10.2,-41.5,1.1,-41.1,-8.4C-40.8,-17.8,-36.1,-27.6,-28.5,-31.8C-20.9,-36.1,-10.4,-34.9,-0.1,-34.8C10.3,-34.7,20.6,-35.7,26.5,-31.2Z" width="100%" height="100%" transform="translate(50 50)" stroke-width="0" style="transition: all 0.3s ease 0s;" stroke="url(#sw-gradient)"></path>
              </svg>